<?xml version="1.0" encoding="UTF-8"?>
<!DOCTYPE svg PUBLIC "-//W3C//DTD SVG 1.1//EN" "http://www.w3.org/Graphics/SVG/1.1/DTD/svg11.dtd">
<!-- Creator: CorelDRAW 2019 (64-Bit) -->
<svg xmlns="http://www.w3.org/2000/svg" xml:space="preserve" width="64px" height="64px" version="1.1" shape-rendering="geometricPrecision" text-rendering="geometricPrecision" image-rendering="optimizeQuality" fill-rule="evenodd" clip-rule="evenodd"
viewBox="0 0 20650 20640"
 xmlns:xlink="http://www.w3.org/1999/xlink"
 xmlns:xodm="http://www.corel.com/coreldraw/odm/2003">
 <g id="Plan_x0020_1">
  <metadata id="CorelCorpID_0Corel-Layer"/>
  <path fill="black" d="M20650 20640l-20650 0 0 -20640 2580 2260 2580 -2260 2580 2260 2580 -2260 2580 2260 2580 -2260 2580 2260 2580 -2260 10 20640zm-14200 -6450l2580 0 0 -1290 -2610 0c-710,-20 -1250,-580 -1260,-1290l0 0 0 -1320 0 0c30,-680 520,-1190 1190,-1250l0 0c30,-10 70,-10 100,-10l2580 0c710,0 1290,580 1290,1290l0 0 0 330c0,170 -150,320 -320,320l-650 0c-170,0 -320,-150 -320,-320l0 -330 -2580 0 0 1290 2580 0c710,10 1260,560 1290,1260l0 0 0 1320c0,910 -830,1290 -1290,1290l-2580 0c-710,0 -1290,-580 -1290,-1290l0 0 0 -320c0,-180 140,-320 320,-320l650 0c170,0 320,140 320,320l0 320zm8630 -5010c280,-230 680,-180 900,100 220,270 180,680 -100,900l-2440 2080 2440 2080c280,220 320,620 100,900 -220,280 -620,320 -900,100l-3060 -2570c-40,-30 -70,-70 -110,-110 -220,-280 -170,-680 110,-900l3060 -2580z"/>
 </g>
</svg>
