<?xml version="1.0" encoding="UTF-8"?>
<!DOCTYPE svg PUBLIC "-//W3C//DTD SVG 1.1//EN" "http://www.w3.org/Graphics/SVG/1.1/DTD/svg11.dtd">
<!-- Creator: CorelDRAW 2019 (64-Bit) -->
<svg xmlns="http://www.w3.org/2000/svg" xml:space="preserve" width="24px" height="32px" version="1.1" shape-rendering="geometricPrecision" text-rendering="geometricPrecision" image-rendering="optimizeQuality" fill-rule="evenodd" clip-rule="evenodd"
viewBox="0 0 8610 11460"
 xmlns:xlink="http://www.w3.org/1999/xlink"
 xmlns:xodm="http://www.corel.com/coreldraw/odm/2003">
 <g id="Plan_x0020_1">
  <metadata id="CorelCorpID_0Corel-Layer"/>
  <path fill="#323232" d="M2040 0l5970 10c530,0 600,430 600,950l0 9560c0,510 -80,950 -600,940l-5970 -10c-520,0 -600,-420 -600,-950l0 -1900 720 0 0 1070 5730 0 0 -7880 -5730 0 0 720 -720 0 0 -1550c0,-530 80,-960 600,-960l0 0z"/>
  <path fill="#323232" fill-rule="nonzero" d="M610 7780c-140,140 -370,140 -510,0 -130,-140 -130,-370 0,-510l3950 -3940c140,-140 360,-140 500,0 70,70 110,160 110,250l0 2920c0,200 -160,360 -360,360 -200,0 -360,-160 -360,-360l0 -2050 -3330 3330z"/>
  <path fill="#323232" fill-rule="nonzero" d="M4300 3220c200,0 360,160 360,360 0,200 -160,360 -360,360l-2920 0c-200,0 -360,-160 -360,-360 0,-200 160,-360 360,-360l2920 0z"/>
 </g>
</svg>
