<?xml version="1.0" encoding="UTF-8"?>
<!DOCTYPE svg PUBLIC "-//W3C//DTD SVG 1.1//EN" "http://www.w3.org/Graphics/SVG/1.1/DTD/svg11.dtd">
<!-- Creator: CorelDRAW 2019 (64-Bit) -->
<svg xmlns="http://www.w3.org/2000/svg" xml:space="preserve" width="22px" height="32px" version="1.1" shape-rendering="geometricPrecision" text-rendering="geometricPrecision" image-rendering="optimizeQuality" fill-rule="evenodd" clip-rule="evenodd"
viewBox="0 0 4200 6240"
 xmlns:xlink="http://www.w3.org/1999/xlink"
 xmlns:xodm="http://www.corel.com/coreldraw/odm/2003">
 <g id="Plan_x0020_1">
  <metadata id="CorelCorpID_0Corel-Layer"/>
  <path fill="#2B2A29" fill-rule="nonzero" d="M3870 1130c70,-80 190,-80 270,0 80,80 80,200 0,280l-1320 1320 500 0c110,0 200,90 200,200 0,100 -90,190 -200,190l-970 0c-30,0 -50,0 -70,-10l-20 -10c-20,-10 -40,-20 -50,-40 -20,-10 -30,-30 -40,-50l-10 -20c0,-20 -10,-40 -10,-60l0 -980c0,-110 90,-190 200,-190 100,0 190,80 190,190l0 500 1330 -1320zm-2210 3750l200 0c50,0 100,-50 100,-100l0 -200c0,-50 -50,-90 -100,-90l-200 0c-50,0 -90,40 -90,90l0 200c0,50 40,100 90,100zm780 0l200 0c50,0 100,-50 100,-100l0 -200c0,-50 -50,-90 -100,-90l-200 0c-50,0 -90,40 -90,90l0 200c0,50 40,100 90,100zm-780 -780l200 0c50,0 100,-50 100,-100l0 -200c0,-50 -50,-90 -100,-90l-200 0c-50,0 -90,40 -90,90l0 200c0,50 40,100 90,100zm-780 780l200 0c50,0 100,-50 100,-100l0 -200c0,-50 -50,-90 -100,-90l-200 0c-50,0 -90,40 -90,90l0 200c0,50 40,100 90,100zm2210 1360l-2670 0c-280,0 -420,-240 -420,-520l0 -5200c0,-290 140,-520 420,-520l2670 0c280,0 420,240 420,520l0 460 -390 0 0 -390 -2730 0 0 4680 2730 0 0 -1760 390 0 0 2210c0,290 -140,520 -420,520l0 0z"/>
 </g>
</svg>
